With: Tilda Swinton, John C. Reilly and Ezra Miller

Bij de geboorte van Kevin heeft Eva haar professionele leven en persoonlijke ambities op een laag pitje gezet. De communicatie tussen moeder en zoon verloopt moeizaam. Aan de vooravond van zijn 16de verjaardag pleegt Kevin een onherstelbare daad. Eva probeert erachter te komen of zij ervoor verantwoordelijk is. We Need to Talk about Kevin is de aangrijpende zoektocht van een moeder naar het antwoord op de vraag of het karakter van haar kind aangeboren of aangeleerd is.

Kevin's mother struggles to love her strange child, despite the increasingly vicious things he says and does as he grows up. But Kevin is just getting started, and his final act will be beyond anything anyone imagined. 
 
http://www.imdb.com/title/tt1242460	

------------------------ Dutch Friends ------------------------
---------------------------------------------------------------
- Bezoek ook eens mijn vrienden op:  http://www.Film-Test.nl --
----- voor mijn Nederlandse Sync. ondertitels ---- en meer ----
------- http://www.Film-Test.nl ---- Over Films en meer -------
---------------------------------------------------------------

General:

Complete name                    : We Need to Talk about KevinWe Need to Talk about Kevin.avi
Format                           : AVI
Format/Info                      : Audio Video Interleave
File size                        : 1.56 GiB
Duration                         : 1h 47mn
Overall bit rate                 : 2 075 Kbps

Video:

Format                           : MPEG-4 Visual
Format profile                   : Simple@L3
Format settings, BVOP            : No
Format settings, QPel            : No
Format settings, GMC             : No warppoints
Format settings, Matrix          : Default (H.263)
Codec ID                         : XVID
Codec ID/Hint                    : XviD
Duration                         : 1h 47mn
Bit rate                         : 1 616 Kbps
Width                            : 720 pixels
Height                           : 304 pixels
Display aspect ratio             : 2.35:1
Frame rate                       : 25.000 fps
Color space                      : YUV
Chroma subsampling               : 4:2:0
Bit depth                        : 8 bits
Scan type                        : Progressive
Compression mode                 : Lossy
Bits/(Pixel*Frame)               : 0.295
Stream size                      : 1.21 GiB (78%)
Writing library                  : XviD 1.1.2 (UTC 2006-11-01)

Audio:

Format                           : AC-3
Format/Info                      : Audio Coding 3
Mode extension                   : CM (complete main)
Codec ID                         : 2000
Duration                         : 1h 47mn
Bit rate mode                    : Constant
Bit rate                         : 448 Kbps
Channel(s)                       : 6 channels
Channel positions                : Front: L C R, Side: L R, LFE
Sampling rate                    : 48.0 KHz
Bit depth                        : 16 bits
Compression mode                 : Lossy
Stream size                      : 344 MiB (22%)
Alignment                        : Aligned on interleaves
Interleave, duration             : 32 ms (0.80 video frame)
Interleave, preload duration     : 320 ms